# xmcd
#
# Track frame offsets: 
#        182
#        26180
#        53035
#        71210
#        98970
#        130985
#        144177
#        166330
#
# Disc length: 2458 seconds
#
# Revision: 2
# Processed by: cddbd v1.5.1PL0 Copyright (c) Steve Scherf et al.
# Submitted via: ExactAudioCopy v0.95b2
#
DISCID=70099808
DTITLE=Wessell Anderson - The Ways of Warmdaddy
DYEAR=1996
DGENRE=Jazz
TTITLE0=Sunday Soulful Supper
TTITLE1=Change of Heart Blues
TTITLE2=Rockin' in Rhythm
TTITLE3=Desimonae
TTITLE4=The Skating Rink
TTITLE5=Ron Green's DC Kitchen
TTITLE6=Baton Rouge Blues
TTITLE7=Mood Indigo
EXTD=
EXTT0=
EXTT1=
EXTT2=
EXTT3=
EXTT4=
EXTT5=
EXTT6=
EXTT7=
PLAYORDER=
